<svg xmlns="http://www.w3.org/2000/svg" version="1.1" xmlnsXlink="http://www.w3.org/1999/xlink" xmlnsSvgjs="http://svgjs.dev/svgjs" width="2000" height="505" viewBox="0 0 2000 505"><g transform="matrix(1,0,0,1,-1.2121212121212466,0.650794106566309)"><svg viewBox="0 0 396 100" data-background-color="#ffffff" preserveAspectRatio="xMidYMid meet" height="505" width="2000" xmlns="http://www.w3.org/2000/svg" xmlnsXlink="http://www.w3.org/1999/xlink"><g id="tight-bounds" transform="matrix(1,0,0,1,0.2400000000000091,-0.12887012011213983)"><svg viewBox="0 0 395.52 100.25774024022428" height="100.25774024022428" width="395.52"><g><svg viewBox="0 0 645.6814645395912 163.66950988505744" height="100.25774024022428" width="395.52"><g><rect width="6.796584348754391" height="163.66950988505744" x="225.57277456582526" y="0" fill="#27292a" opacity="1" stroke-width="0" stroke="transparent" fill-opacity="1" class="rect-o-0" data-fill-palette-color="primary" rx="1%" id="o-0" data-palette-color="#27292a"></rect></g><g transform="matrix(1,0,0,1,250.16146453959112,0.4071380842911765)"><svg viewBox="0 0 395.52 162.85523371647508" height="162.85523371647508" width="395.52"><g id="textblocktransform"><svg viewBox="0 0 395.52 162.85523371647508" height="162.85523371647508" width="395.52" id="textblock"><g><svg viewBox="0 0 395.52 162.85523371647508" height="162.85523371647508" width="395.52"><g transform="matrix(1,0,0,1,0,0)"><svg width="395.52" viewBox="1.2499992847442627 -36.85000228881836 197.6500244140625 77.60000610351562" height="162.85523371647508" data-palette-color="#27292a"><svg></svg><svg></svg><g class="undefined-text-0" data-fill-palette-color="primary" id="text-0"><path xmlns="http://www.w3.org/2000/svg" d="M17-32.4v0 24.3c0 2.767-0.783 4.883-2.35 6.35-1.567 1.467-3.543 2.2-5.93 2.2-2.38 0-4.22-0.4-5.52-1.2-1.3-0.8-1.95-1.7-1.95-2.7 0-1 0.25-1.75 0.75-2.25v0c1.633 1.233 3.483 1.85 5.55 1.85v0c2.8 0 4.2-1.35 4.2-4.05v0-24.55c0-1.2-0.45-1.983-1.35-2.35v0c0.8-1.167 1.867-1.75 3.2-1.75v0c2.267 0 3.4 1.383 3.4 4.15zM25.8-12.95v0-19.5c0-1.167-0.467-1.95-1.4-2.35v0c0.867-1.167 1.933-1.75 3.2-1.75v0c2.267 0 3.4 1.383 3.4 4.15v0 20.15c0 5.667 2.843 8.5 8.53 8.5 5.68 0 8.52-2.833 8.52-8.5v0-20.2c0-1.167-0.467-1.95-1.4-2.35v0c0.8-1.167 1.867-1.75 3.2-1.75v0c2.267 0 3.4 1.383 3.4 4.15v0 19.45c0 4.2-1.117 7.483-3.35 9.85-2.233 2.367-5.673 3.55-10.32 3.55-4.653 0-8.113-1.193-10.38-3.58-2.267-2.38-3.4-5.653-3.4-9.82zM85.9-29.55v0c0 1.033-0.29 1.85-0.87 2.45-0.587 0.6-1.313 0.9-2.18 0.9-0.867 0-1.767-0.233-2.7-0.7v0c0.2-0.6 0.3-1.15 0.3-1.65v0c0-1.133-0.6-2.177-1.8-3.13-1.2-0.947-2.873-1.42-5.02-1.42-2.153 0-3.88 0.44-5.18 1.32-1.3 0.887-1.95 2.013-1.95 3.38 0 1.367 0.51 2.55 1.53 3.55 1.013 1 2.28 1.833 3.8 2.5 1.513 0.667 3.153 1.423 4.92 2.27 1.767 0.853 3.41 1.69 4.93 2.51 1.513 0.813 2.78 1.87 3.8 3.17 1.013 1.3 1.52 2.733 1.52 4.3v0c0 3.033-1.323 5.55-3.97 7.55-2.653 2-5.853 3-9.6 3-3.753 0-6.87-0.793-9.35-2.38-2.487-1.58-3.73-3.587-3.73-6.02v0c0-1.167 0.36-2.11 1.08-2.83 0.713-0.713 1.63-1.07 2.75-1.07 1.113 0 2.053 0.433 2.82 1.3v0c-0.767 0.667-1.15 1.607-1.15 2.82 0 1.22 0.677 2.28 2.03 3.18 1.347 0.9 3.187 1.35 5.52 1.35 2.333 0 4.31-0.567 5.93-1.7 1.613-1.133 2.42-2.46 2.42-3.98 0-1.513-0.707-2.82-2.12-3.92-1.42-1.1-3.13-2.06-5.13-2.88-2-0.813-4.007-1.687-6.02-2.62-2.02-0.933-3.737-2.15-5.15-3.65-1.42-1.5-2.13-3.217-2.13-5.15v0c0-2.833 1.25-5.14 3.75-6.92 2.5-1.787 5.493-2.68 8.98-2.68 3.48 0 6.347 0.69 8.6 2.07 2.247 1.387 3.37 3.08 3.37 5.08zM95.7-36.15v0h18.85c2.267 0 3.4 0.9 3.4 2.7v0c0 0.8-0.317 1.517-0.95 2.15v0c-1-0.5-2.35-0.75-4.05-0.75v0h-6.05v28.35c0 1.2 0.45 2 1.35 2.4v0c-0.8 1.167-1.85 1.75-3.15 1.75v0c-2.3 0-3.45-1.4-3.45-4.2v0-28.3h-7.6c-2.233 0-3.35-0.9-3.35-2.7v0c0-0.8 0.3-1.5 0.9-2.1v0c0.967 0.467 2.333 0.7 4.1 0.7z" fill="#27292a" fill-rule="nonzero" stroke="none" stroke-width="1" stroke-linecap="butt" stroke-linejoin="miter" stroke-miterlimit="10" stroke-dasharray="" stroke-dashoffset="0" font-family="none" font-weight="none" font-size="none" text-anchor="none" style="mix-blend-mode: normal" data-fill-palette-color="primary" opacity="1"></path><path xmlns="http://www.w3.org/2000/svg" d="M44.35 39.85v0c-0.9 0.567-1.85 0.85-2.85 0.85-1 0-1.773-0.3-2.32-0.9-0.553-0.6-0.897-1.6-1.03-3v0l-1.75-26.75-10.6 28.3c-0.367 1.067-1.1 1.6-2.2 1.6-1.1 0-1.833-0.533-2.2-1.6v0l-10.45-28.3-1.75 26.6c-0.1 1.433-0.383 2.473-0.85 3.12-0.467 0.653-1.233 0.98-2.3 0.98-1.067 0-2.033-0.433-2.9-1.3v0c0.667-0.567 1.05-1.583 1.15-3.05v0l2.1-28.2c0-0.2 0-0.383 0-0.55v0c0-1.1-0.267-1.967-0.8-2.6v0c1.433-0.867 2.933-1.3 4.5-1.3 1.567 0 2.783 0.433 3.65 1.3 0.867 0.867 1.6 2.233 2.2 4.1v0l8.05 21.75 8.3-21.65c0.667-2.067 1.51-3.5 2.53-4.3 1.013-0.8 2.22-1.2 3.62-1.2 1.4 0 2.7 0.3 3.9 0.9v0c-0.533 0.733-0.8 1.65-0.8 2.75v0c0 0.167 0 0.35 0 0.55v0l1.95 28.35c0.067 1.733 0.35 2.917 0.85 3.55zM60.5 33.35c2.067 2.533 4.7 3.8 7.9 3.8 3.2 0 5.667-1.433 7.4-4.3v0c1.467-2.367 2.2-5.317 2.2-8.85v0c0-0.733-0.033-1.5-0.1-2.3v0c-0.3-4.5-1.483-8.027-3.55-10.58-2.067-2.547-4.71-3.82-7.93-3.82-3.213 0-5.687 1.433-7.42 4.3v0c-1.467 2.4-2.2 5.367-2.2 8.9v0c0 5.533 1.233 9.817 3.7 12.85zM67.45 3.75c5 0 8.883 1.667 11.65 5 2.767 3.333 4.15 7.807 4.15 13.42 0 5.62-1.39 10.12-4.17 13.5-2.787 3.387-6.673 5.08-11.66 5.08-4.98 0-8.877-1.683-11.69-5.05-2.82-3.367-4.23-7.85-4.23-13.45 0-5.6 1.41-10.083 4.23-13.45 2.813-3.367 6.72-5.05 11.72-5.05zM113.8 9.15c0.4-1.133 0.6-2.1 0.6-2.9 0-0.8-0.2-1.433-0.6-1.9v0c0.867-0.467 1.783-0.7 2.75-0.7 0.967 0 1.733 0.267 2.3 0.8 0.567 0.533 0.85 1.233 0.85 2.1 0 0.867-0.183 1.733-0.55 2.6v0l-11.05 27.65c-0.633 1.567-1.223 2.617-1.77 3.15-0.553 0.533-1.397 0.8-2.53 0.8-1.133 0-1.957-0.267-2.47-0.8-0.52-0.533-1.063-1.583-1.63-3.15v0l-10.5-28.35c-0.567-1.467-1.267-2.433-2.1-2.9v0c1.033-1.2 2.233-1.8 3.6-1.8v0c0.9 0 1.65 0.29 2.25 0.87 0.6 0.587 1.15 1.563 1.65 2.93v0l9.65 27.7zM130.45 7.9v0 28.7c0 1.2 0.45 2 1.35 2.4v0c-0.8 1.167-1.867 1.75-3.2 1.75v0c-2.267 0-3.4-1.4-3.4-4.2v0-28.7c0-1.167-0.45-1.95-1.35-2.35v0c0.767-1.167 1.817-1.75 3.15-1.75v0c2.3 0 3.45 1.383 3.45 4.15zM149.85 36.05v0h9.55c2.033 0 3.633-0.683 4.8-2.05v0c1 0.5 1.5 1.34 1.5 2.52 0 1.187-0.467 2.113-1.4 2.78-0.933 0.667-2.383 1-4.35 1v0h-10.6c-2.8 0-4.857-0.577-6.17-1.73-1.32-1.147-1.98-3.003-1.98-5.57v0-24.5c0-1.2-0.467-2-1.4-2.4v0c0.933-1.3 2.317-1.95 4.15-1.95v0h16.05c3.8 0 5.7 1.017 5.7 3.05v0c0 1.133-0.5 1.95-1.5 2.45v0c-1.067-0.8-2.667-1.2-4.8-1.2v0h-12.95v10.85h9.5c2.067 0 3.533 0.183 4.4 0.55 0.867 0.367 1.3 1.05 1.3 2.05 0 1-0.45 1.783-1.35 2.35v0c-1.033-0.467-2.633-0.7-4.8-0.7v0h-9.05v9.05c0 1.233 0.267 2.117 0.8 2.65 0.533 0.533 1.4 0.8 2.6 0.8zM197.8 10.75v0c0 1.033-0.29 1.85-0.87 2.45-0.587 0.6-1.313 0.9-2.18 0.9-0.867 0-1.767-0.233-2.7-0.7v0c0.2-0.6 0.3-1.15 0.3-1.65v0c0-1.133-0.6-2.177-1.8-3.13-1.2-0.947-2.873-1.42-5.02-1.42-2.153 0-3.88 0.44-5.18 1.32-1.3 0.887-1.95 2.013-1.95 3.38 0 1.367 0.51 2.55 1.53 3.55 1.013 1 2.28 1.833 3.8 2.5 1.513 0.667 3.153 1.423 4.92 2.27 1.767 0.853 3.41 1.69 4.93 2.51 1.513 0.813 2.78 1.87 3.8 3.17 1.013 1.3 1.52 2.733 1.52 4.3v0c0 3.033-1.323 5.55-3.97 7.55-2.653 2-5.853 3-9.6 3-3.753 0-6.87-0.793-9.35-2.38-2.487-1.58-3.73-3.587-3.73-6.02v0c0-1.167 0.36-2.11 1.08-2.83 0.713-0.713 1.63-1.07 2.75-1.07 1.113 0 2.053 0.433 2.82 1.3v0c-0.767 0.667-1.15 1.607-1.15 2.82 0 1.22 0.677 2.28 2.03 3.18 1.347 0.9 3.187 1.35 5.52 1.35 2.333 0 4.31-0.567 5.93-1.7 1.613-1.133 2.42-2.46 2.42-3.98 0-1.513-0.707-2.82-2.12-3.92-1.42-1.1-3.13-2.06-5.13-2.88-2-0.813-4.007-1.687-6.02-2.62-2.02-0.933-3.737-2.15-5.15-3.65-1.42-1.5-2.13-3.217-2.13-5.15v0c0-2.833 1.25-5.14 3.75-6.92 2.5-1.787 5.493-2.68 8.98-2.68 3.48 0 6.347 0.69 8.6 2.07 2.247 1.387 3.37 3.08 3.37 5.08z" fill="#fdc500" fill-rule="nonzero" stroke="none" stroke-width="1" stroke-linecap="butt" stroke-linejoin="miter" stroke-miterlimit="10" stroke-dasharray="" stroke-dashoffset="0" font-family="none" font-weight="none" font-size="none" text-anchor="none" style="mix-blend-mode: normal" data-fill-palette-color="accent" opacity="1"></path></g></svg></g></svg></g></svg></g></svg></g><g transform="matrix(1,0,0,1,0,0.4071380842911765)"><svg viewBox="0 0 207.78066894081377 162.85523371647508" height="162.85523371647508" width="207.78066894081377"><g><svg xmlns="http://www.w3.org/2000/svg" xmlnsXlink="http://www.w3.org/1999/xlink" version="1.1" x="0" y="0" viewBox="0 0 99.63200378417969 78.09000396728516" enable-background="new 0 0 99.633 78.09" xmlSpace="preserve" width="207.78066894081377" height="162.85523371647508" class="icon-icon-0" data-fill-palette-color="accent" id="icon-0"><g fill="#fdc500" data-fill-palette-color="accent"><path d="M96.941 0H2.693C1.205 0 0 1.206 0 2.693v56.548c0 1.489 1.205 2.694 2.693 2.694h43.085v10.771h-8.079c-1.488 0-2.693 1.204-2.693 2.692 0 1.485 1.205 2.692 2.693 2.692h21.542c1.488 0 2.692-1.207 2.692-2.692 0-1.488-1.204-2.692-2.692-2.692h-8.078V61.935h45.777c1.488 0 2.692-1.205 2.692-2.694V2.693C99.633 1.206 98.429 0 96.941 0zM94.248 56.548H5.386V5.385h88.861V56.548z" fill="#fdc500" data-fill-palette-color="accent"></path><path d="M43.264 41.276c0.063 0.177 0.155 0.33 0.25 0.488 0.063 0.101 0.084 0.217 0.16 0.311 0.029 0.037 0.074 0.048 0.105 0.082 0.19 0.212 0.413 0.376 0.66 0.521 0.084 0.05 0.153 0.123 0.24 0.163 0.336 0.15 0.705 0.244 1.099 0.244l0 0c0.002 0 0.002 0 0.002 0 0.327 0 0.65-0.073 0.963-0.194 0.116-0.045 0.213-0.116 0.321-0.176 0.131-0.074 0.273-0.121 0.396-0.219l10.771-8.619c0.092-0.074 0.14-0.177 0.219-0.26 0.06-0.064 0.145-0.09 0.202-0.161 0.052-0.066 0.065-0.146 0.11-0.214 0.103-0.154 0.179-0.311 0.247-0.48 0.063-0.159 0.118-0.314 0.149-0.48 0.032-0.17 0.04-0.333 0.043-0.507-0.003-0.173-0.011-0.336-0.043-0.507-0.031-0.166-0.086-0.321-0.149-0.48-0.068-0.169-0.145-0.326-0.247-0.479-0.045-0.069-0.059-0.149-0.11-0.215-0.066-0.08-0.158-0.119-0.229-0.19-0.07-0.072-0.109-0.166-0.191-0.23L47.46 21.054c-0.095-0.074-0.208-0.097-0.308-0.157-0.161-0.099-0.313-0.192-0.494-0.256-0.177-0.062-0.353-0.083-0.537-0.107-0.118-0.016-0.221-0.07-0.344-0.07-0.053 0-0.095 0.026-0.147 0.031-0.182 0.009-0.352 0.059-0.529 0.106-0.168 0.044-0.333 0.078-0.486 0.153-0.143 0.066-0.261 0.168-0.39 0.26-0.158 0.114-0.311 0.222-0.439 0.368-0.034 0.037-0.082 0.054-0.113 0.093-0.076 0.095-0.097 0.209-0.16 0.311-0.095 0.158-0.187 0.31-0.25 0.487-0.063 0.181-0.086 0.361-0.11 0.548-0.016 0.114-0.068 0.217-0.068 0.336v17.235c0 0.119 0.053 0.223 0.068 0.337C43.177 40.915 43.201 41.095 43.264 41.276zM48.47 28.761l3.769 3.014-3.769 3.014V28.761z" fill="#fdc500" data-fill-palette-color="accent"></path></g></svg></g></svg></g></svg></g><defs></defs></svg><rect width="395.52" height="100.25774024022428" fill="none" stroke="none" visibility="hidden"></rect></g></svg></g></svg>